<svg xmlns="http://www.w3.org/2000/svg" width="68" height="68" fill="none"><g filter="url(#a)"><path fill="#000" d="m29.238 24.07-.084-2.072a10.222 10.222 0 0 0-1.764-.672 6.595 6.595 0 0 0-1.988-.308c-.747 0-1.428.093-2.044.28a3.096 3.096 0 0 0-1.54 1.008c-.43.485-.765 1.157-1.008 2.016-.224.84-.336 1.932-.336 3.276v2.576c0 1.27.103 2.324.308 3.164.224.821.541 1.475.952 1.96.41.485.915.83 1.512 1.036.616.187 1.316.28 2.1.28.821 0 1.55-.065 2.184-.196.635-.15 1.195-.299 1.68-.448-.075-.43-.112-.98-.112-1.652V32.19h-2.044v-2.352h5.152v5.068c0 1.008.056 1.801.168 2.38.112.56.243.961.392 1.204-.317.112-.635.215-.952.308-.317.112-.635.215-.952.308a1.138 1.138 0 0 1-.42-.252c-.13-.13-.261-.336-.392-.616-.597.205-1.279.392-2.044.56-.765.187-1.652.28-2.66.28-1.12 0-2.184-.103-3.192-.308a6.293 6.293 0 0 1-2.632-1.204c-.747-.597-1.344-1.447-1.792-2.548-.448-1.12-.672-2.595-.672-4.424v-2.856c0-1.904.196-3.453.588-4.648.41-1.195.98-2.119 1.708-2.772a5.753 5.753 0 0 1 2.604-1.372c1.008-.243 2.11-.364 3.304-.364.933 0 1.923.075 2.968.224 1.045.15 2.137.401 3.276.756l-.196 4.508h-2.072Zm5.731-2.744V18.89h7.868c1.214 0 2.306.093 3.276.28.99.187 1.83.504 2.52.952a4.488 4.488 0 0 1 1.596 1.792c.374.728.56 1.652.56 2.772v.868c0 1.083-.205 1.979-.616 2.688a4.6 4.6 0 0 1-1.68 1.652c-.69.392-1.512.663-2.464.812a19.16 19.16 0 0 1-3.024.224h-2.884v5.432h1.288v2.408h-5.823v-2.408h1.288V21.326h-1.905Zm12.6 3.836c0-.784-.111-1.419-.336-1.904-.223-.504-.531-.896-.923-1.176-.393-.299-.869-.495-1.428-.588a9.015 9.015 0 0 0-1.82-.168h-2.94v7.336h2.883c.635 0 1.223-.037 1.764-.112.56-.093 1.046-.261 1.456-.504.411-.261.738-.616.98-1.064.243-.467.364-1.073.364-1.82Z"/></g><g filter="url(#b)"><path fill="#000" d="M57.801 12.387a29.776 29.776 0 0 0-12.811-9.98C39.908.33 34.255-.242 28.828.67c-5.438.903-10.631 3.394-14.806 7.119-.686.658-1.885 1.78-3.228 3.468-1.333 1.687-2.85 3.92-4.057 6.71a29.82 29.82 0 0 0-1.568 4.535 30.154 30.154 0 0 0-.835 5.146c-.27 3.576.102 7.416 1.259 11.08a29.52 29.52 0 0 0 5.453 10.012 29.59 29.59 0 0 0 8.219 6.87 30.702 30.702 0 0 0 4.376 2.034c1.44.519 2.831.899 4.133 1.181 2.613.535 4.854.638 6.488.625.398-.016.794-.016 1.19-.045 3.57-.166 7.497-1.123 10.934-2.8 3.454-1.652 6.368-3.996 8.39-6.214a28.548 28.548 0 0 0 4.575-6.9c-.33.55-.681 1.06-1.01 1.54-.354.468-.663.924-1 1.312 1.625-2.269 2.773-4.833 3.07-5.858.497-1.394.687-2.276.765-2.751.078-.476.04-.551-.072-.385-.113.165-.29.574-.51 1.062-.245.48-.487 1.055-.777 1.537-.357.716-.386.55-.458.492-.076-.061-.167-.003-.744 1.08.74-1.603 1.047-2.44 1.55-4.141-.018-.058-.116.242-.25.704-.163.454-.342 1.079-.572 1.651l-.32.816c-.104.246-.209.457-.287.616-.158.316-.234.416-.157.115.756-1.521 1.304-3.353 1.707-5.061-.141.28-.543 1.745-1.036 3.063-.506 1.314-1.091 2.473-1.107 2.316.088-.22.271-.601.497-1.058.201-.466.459-1.005.661-1.544.427-1.072.702-2.12.648-2.306-.02-.074-.494 1.603-.803 2.419.871-2.542 1.114-4.621 1.134-5.412.005-.4-.036-.48-.13-.167-.09.314-.25 1.022-.56 2.182.19-.81.378-1.8.515-2.811.072-.505.103-1.018.15-1.512.023-.496.03-.976.037-1.418l-.005.013c-.021.441-.029 1.043-.085 1.632-.057.59-.107 1.17-.172 1.572.133-.99.188-1.994.208-2.996l-.105.523a16.17 16.17 0 0 1-.089 1.12c-.043.375-.058.756-.12 1.14.052-.326.067-.657.096-.986.024-.33.06-.66.062-.992-.075.493-.212 1.053-.316 1.666-.384 2.32-1.168 4.412-1.583 5.582-1.66 4.759-4.76 8.997-8.768 12.036a25.7 25.7 0 0 1-13.883 5.2c-.014.083.529.123-.302.224-.327.032-.65.033-.964.045a8.804 8.804 0 0 1-.929-.009l-.903-.05-.885-.103a11.136 11.136 0 0 1-.88-.126l-.89-.144c-.593-.124-1.207-.218-1.847-.361l-.214.085c-1.97-.517-3.938-1.336-5.814-2.383a25.391 25.391 0 0 1-4.91-3.3 25.622 25.622 0 0 1-4.034-4.304c.02.111.013.178-.23-.133-.985-1.315-2.134-3.306-2.965-5.512-.137-.32-.274-.641-.384-.966-.112-.245-.179-.296-.22-.328a23.648 23.648 0 0 1-.729-2.807c-1.305-5.648-.755-11.87 1.936-17.35a26.35 26.35 0 0 1 5.436-7.496A26.697 26.697 0 0 1 23.84 5.14c.633-.298 1.29-.54 1.943-.793.664-.218 1.326-.448 2.003-.615a23.237 23.237 0 0 1 4.072-.725 24.863 24.863 0 0 1 6.57.335 26.732 26.732 0 0 1 6.203 1.923c-.092-.165.397-.07 1.152.188.75.268 1.763.706 2.702 1.208 1.887.984 3.508 2.16 2.89 1.345a32.32 32.32 0 0 1 3.25 3.05c.938 1.029 1.603 1.878 1.726 1.918.18.064.402.213.721.482.158.136.343.301.546.51.197.214.419.467.668.768.964 1.213 2.382 3.234 3.608 6.82.47 1.404.826 3.256.988 4.88.053.405.08.797.1 1.165.02.368.052.71.059 1.018.013.617.029 1.094.055 1.354.032.386.065.354.099.112.033-.243.053-.733.076-1.212.039-.964.005-1.937.14-1.114a29.226 29.226 0 0 0-5.608-15.37Z"/></g><defs><filter id="a" width="41.731" height="28.524" x="13.058" y="18.582" color-interpolation-filters="sRGB" filterUnits="userSpaceOnUse"><feFlood flood-opacity="0" result="BackgroundImageFix"/><feColorMatrix in="SourceAlpha" result="hardAlpha" values="0 0 0 0 0 0 0 0 0 0 0 0 0 0 0 0 0 0 127 0"/><feOffset dy="4"/><feGaussianBlur stdDeviation="2"/><feComposite in2="hardAlpha" operator="out"/><feColorMatrix values="0 0 0 0 0 0 0 0 0 0 0 0 0 0 0 0 0 0 0.25 0"/><feBlend in2="BackgroundImageFix" result="effect1_dropShadow_13_37"/><feBlend in="SourceGraphic" in2="effect1_dropShadow_13_37" result="shape"/></filter><filter id="b" width="67.16" height="67.201" x=".25" y=".25" color-interpolation-filters="sRGB" filterUnits="userSpaceOnUse"><feFlood flood-opacity="0" result="BackgroundImageFix"/><feColorMatrix in="SourceAlpha" result="hardAlpha" values="0 0 0 0 0 0 0 0 0 0 0 0 0 0 0 0 0 0 127 0"/><feOffset dy="4"/><feGaussianBlur stdDeviation="2"/><feComposite in2="hardAlpha" operator="out"/><feColorMatrix values="0 0 0 0 0 0 0 0 0 0 0 0 0 0 0 0 0 0 0.25 0"/><feBlend in2="BackgroundImageFix" result="effect1_dropShadow_13_37"/><feBlend in="SourceGraphic" in2="effect1_dropShadow_13_37" result="shape"/></filter></defs></svg>